<svg width="195" height="37" xmlns="http://www.w3.org/2000/svg" fill="none">
 <defs>
  <clipPath id="clip0">
   <rect id="svg_1" x="0.00098" y="0.00049" fill="white" height="37" width="27"/>
  </clipPath>
 </defs>
 <g>
  <title>Layer 1</title>
  <g>
   <g>
    <path fill="#000616" d="m18.2694,15c-0.1,0 -2.7,1.6 -3.7,1.6c0,0 0.7,-1.7 1.8,-1.5c1,0.1 1.8,-0.1 1.9,-0.1z" class="st0"/>
    <path fill="#000616" d="m28.7694,36.3l0,0c-5,-15 -13,0.7 -13,0.7l0,0c-6.1,-2.2 -10.6,-7.7 -11.2,-14.3c0.4,-0.3 0.7,-0.6 0.8,-0.6c0.5,-0.2 3.2,1.7 3.2,1.7s-0.3,-2 2.1,-1.5s7.9,-1.6 7.9,-1.6c-1.8,2.5 -3.1,2.1 -3.2,2.1c0,0.1 1.2,1.7 -3.2,3.2c-4.5,1.5 -6.3,-1.6 -6.3,-1.6s0.1,1.3 0.3,2c0.2,0.7 0.1,1.4 1.9,2c1.7,0.6 4.1,3.8 4.1,3.8c-0.2,-2 0.5,-3.5 0.5,-3.5c1.2,1.3 2,0.6 2,0.6c-2.4,-2 0.5,-2.9 0.5,-2.9c2.9,-2.2 8.4,0 8.4,0c-0.6,-0.9 0,-2.2 0,-2.2c8.5,4.9 6.9,9.7 5.2,12.1z" class="st0"/>
    <path fill="#000616" d="m37.7694,16.3c-0.1,-0.2 -0.3,-0.4 -0.4,-0.6c-1.1,-1.3 -5.6,-3.3 -5.6,-3.3c0.2,-0.1 3.8,0.1 3.8,0.1c-0.9,-1.6 -6.2,-0.7 -6.2,-0.7c1.6,-0.8 2.8,-2.1 3.6,-3.3c2.3,2.1 4,4.7 4.8,7.8z" class="st0"/>
    <path fill="#000616" d="m28.2694,0l-0.1,0.4c-0.3,0.8 -1,2.6 -1.9,4.2c-0.4,0.8 -0.9,1.5 -1.3,2.2c-0.3,0.4 -0.7,0.8 -1,1.1c-1.2,1 -2.1,2.3 -3.5,3c-2.8,1.3 -4.4,1.6 -6,2.5c-2.1,1.2 -2,3.4 -2,3.4c-1.5,1.2 -4.1,1.9 -6.3,2.3c-0.6,0.1 -1.1,0.2 -1.6,0.3c-1.1,0.2 -2,0.3 -2.3,0.4c-1.2,0.3 -0.3,1.3 -0.3,1.3c0.1,0.2 0.1,0.5 0.2,0.7c0,0 -2.3,-2.1 0.3,-2.4c0,0 1.7,-0.1 2.2,-0.7c1.1,-8.3 8.2,-14.7 16.8,-14.7c1,0 2.1,0.1 3,0.3c0.9,-0.9 2.3,-2.3 3.8,-4.3z" class="st0"/>
    <path fill="#000616" d="m34.7694,4l-0.7,1.2c-0.6,0.8 -1.4,1.6 -2.3,2.2c-0.4,0.3 -0.9,0.7 -1.4,1c-2.8,1.8 -5.7,2.9 -5.8,2.9c1.4,-1 2.4,-3.7 3,-6.2c1,0.4 2,0.9 2.9,1.5c1.5,-0.8 3.4,-1.9 4.3,-2.6z" class="st0"/>
   </g>
   <g>
    <path fill="#000616" d="m53.3694,14.1l0,2.7l-3.6,0l0,10.8l-3.3,0l0,-10.8l-3.6,0l0,-2.7c-0.1,0 10.5,0 10.5,0z" class="st0"/>
    <path fill="#000616" d="m64.5694,18c0.8,0.8 1.1,1.9 1.1,3.3l0,6.3l-3.2,0l0,-5.9c0,-0.7 -0.1,-1.3 -0.5,-1.6c-0.4,-0.4 -0.9,-0.5 -1.5,-0.5c-0.7,0 -1.1,0.1 -1.5,0.5c-0.4,0.4 -0.5,0.9 -0.5,1.6l0,5.9l-3.3,0l0,-14.3l3.3,0l0,5c0.3,-0.5 0.8,-0.8 1.3,-1.1c0.5,-0.3 1.2,-0.4 2,-0.4c1.1,0 2,0.4 2.8,1.2z" class="st0"/>
    <path fill="#000616" d="m77.9694,22.9l-7.5,0c0,0.7 0.3,1.2 0.7,1.5c0.4,0.4 0.8,0.5 1.3,0.5c0.8,0 1.3,-0.4 1.7,-1.1l3.5,0c-0.1,0.7 -0.5,1.3 -0.9,1.9c-0.4,0.5 -1.1,1.1 -1.7,1.3c-0.7,0.3 -1.5,0.5 -2.4,0.5c-1.1,0 -2,-0.3 -2.8,-0.7c-0.8,-0.4 -1.5,-1.1 -1.9,-1.9c-0.4,-0.8 -0.7,-1.9 -0.7,-2.9c0,-1.1 0.3,-2.1 0.7,-2.9c0.4,-0.8 1.1,-1.5 1.9,-1.9c0.8,-0.4 1.7,-0.7 2.8,-0.7c1.1,0 2,0.3 2.8,0.7c0.8,0.4 1.5,1.1 1.9,1.9c0.4,0.8 0.7,1.7 0.7,2.8c0,0.5 0,0.7 -0.1,1zm-3.2,-1.7c0,-0.5 -0.1,-1.1 -0.5,-1.3s-0.8,-0.5 -1.5,-0.5c-0.5,0 -1.1,0.1 -1.3,0.5c-0.4,0.3 -0.7,0.8 -0.7,1.3l4,0z" class="st0"/>
    <path fill="#000616" d="m92.6694,14.9c1.1,0.5 1.9,1.3 2.4,2.4s0.9,2.1 0.9,3.5s-0.3,2.5 -0.9,3.5c-0.5,1.1 -1.5,1.9 -2.5,2.4s-2.3,0.8 -3.7,0.8l-5.1,0l0,-13.4l5.1,0c1.6,0 2.8,0.2 3.8,0.8zm-1,8.8c0.7,-0.7 1.1,-1.6 1.1,-2.9c0,-1.2 -0.4,-2.3 -1.1,-2.9c-0.7,-0.7 -1.6,-0.9 -2.9,-0.9l-1.6,0l0,7.9l1.6,0c1.3,-0.2 2.2,-0.5 2.9,-1.2z" class="st0"/>
    <path fill="#000616" d="m97.7694,19.3c0.4,-0.8 0.9,-1.5 1.7,-1.9c0.7,-0.4 1.5,-0.7 2.4,-0.7c0.8,0 1.5,0.1 2,0.4c0.5,0.3 1.1,0.7 1.3,1.2l0,-1.5l3.3,0l0,10.7l-3.2,0l0,-1.5c-0.3,0.5 -0.8,0.9 -1.3,1.2c-0.5,0.3 -1.2,0.4 -2,0.4c-0.9,0 -1.6,-0.3 -2.4,-0.7c-0.7,-0.4 -1.3,-1.1 -1.7,-2c-0.4,-0.8 -0.7,-1.9 -0.7,-2.9c0.1,-1 0.2,-1.9 0.6,-2.7zm6.8,0.9c-0.4,-0.5 -1.1,-0.7 -1.6,-0.7c-0.7,0 -1.2,0.3 -1.6,0.7c-0.4,0.5 -0.7,1.1 -0.7,1.9s0.3,1.5 0.7,2c0.4,0.5 1.1,0.7 1.6,0.7c0.7,0 1.2,-0.3 1.6,-0.7c0.4,-0.5 0.7,-1.1 0.7,-2c0,-0.8 -0.3,-1.3 -0.7,-1.9z" class="st0"/>
    <path fill="#000616" d="m115.7694,17.2c0.5,-0.4 1.2,-0.5 1.9,-0.5l0,3.5l-0.9,0c-0.8,0 -1.5,0.1 -1.9,0.5s-0.7,0.9 -0.7,1.9l0,5l-3.3,0l0,-10.8l3.3,0l0,1.7c0.5,-0.5 0.9,-0.9 1.6,-1.3z" class="st0"/>
    <path fill="#000616" d="m125.7694,27.6l-3.2,-4.6l0,4.6l-3.3,0l0,-14.3l3.3,0l0,7.9l3.2,-4.4l4,0l-4.4,5.4l4.6,5.4l-4.2,0l0,0z" class="st0"/>
    <path fill="#000616" d="m138.4694,14.1l0,13.5l-3.3,0l0,-13.5l3.3,0z" class="st0"/>
    <path fill="#000616" d="m142.6694,27.2c-0.7,-0.3 -1.3,-0.8 -1.7,-1.3c-0.4,-0.5 -0.7,-1.2 -0.7,-1.9l3.2,0c0,0.4 0.3,0.7 0.5,0.9s0.7,0.4 1.1,0.4s0.7,-0.1 0.9,-0.3c0.3,-0.1 0.4,-0.4 0.4,-0.7s-0.1,-0.5 -0.5,-0.7c-0.3,-0.1 -0.8,-0.3 -1.6,-0.5c-0.8,-0.1 -1.5,-0.4 -1.9,-0.5c-0.5,-0.1 -0.9,-0.5 -1.3,-0.9c-0.4,-0.4 -0.5,-1.1 -0.5,-1.7s0.1,-1.2 0.5,-1.7c0.4,-0.5 0.8,-0.9 1.5,-1.2c0.7,-0.3 1.5,-0.4 2.4,-0.4c1.3,0 2.4,0.3 3.2,0.9c0.8,0.7 1.2,1.6 1.3,2.7l-3.1,0c0,-0.4 -0.3,-0.7 -0.5,-0.9c-0.3,-0.3 -0.7,-0.3 -1.1,-0.3c-0.4,0 -0.7,0.1 -0.9,0.3s-0.3,0.4 -0.3,0.7s0.1,0.5 0.5,0.7c0.3,0.1 0.8,0.3 1.5,0.4c0.8,0.3 1.5,0.4 2,0.7c0.5,0.1 0.9,0.5 1.3,0.9c0.4,0.4 0.5,1.1 0.5,1.7s-0.1,1.2 -0.5,1.7c-0.4,0.5 -0.8,0.9 -1.5,1.2c-0.7,0.3 -1.5,0.4 -2.3,0.4c-0.8,-0.1 -1.6,-0.2 -2.4,-0.6z" class="st0"/>
    <path fill="#000616" d="m154.8694,13.3l0,14.2l-3.2,0l0,-14.2l3.2,0z" class="st0"/>
    <path fill="#000616" d="m157.2694,19.3c0.4,-0.8 0.9,-1.5 1.7,-1.9c0.7,-0.4 1.5,-0.7 2.4,-0.7c0.8,0 1.5,0.1 2,0.4c0.5,0.3 1.1,0.7 1.3,1.2l0,-1.5l3.3,0l0,10.7l-3.3,0l0,-1.5c-0.3,0.5 -0.8,0.9 -1.3,1.2c-0.5,0.3 -1.2,0.4 -2,0.4c-0.9,0 -1.6,-0.3 -2.4,-0.7c-0.7,-0.4 -1.3,-1.1 -1.7,-2c-0.4,-0.8 -0.7,-1.9 -0.7,-2.9c0,-1 0.3,-1.9 0.7,-2.7zm6.7,0.9c-0.4,-0.5 -1.1,-0.7 -1.6,-0.7s-1.2,0.3 -1.6,0.7c-0.4,0.5 -0.7,1.1 -0.7,1.9s0.3,1.5 0.7,2s1.1,0.7 1.6,0.7s1.2,-0.3 1.6,-0.7c0.4,-0.5 0.7,-1.1 0.7,-2c-0.1,-0.8 -0.3,-1.3 -0.7,-1.9z" class="st0"/>
    <path fill="#000616" d="m179.8694,18c0.8,0.8 1.1,1.9 1.1,3.3l0,6.3l-3.2,0l0,-5.9c0,-0.7 -0.1,-1.3 -0.5,-1.6c-0.4,-0.4 -0.9,-0.5 -1.5,-0.5c-0.7,0 -1.1,0.1 -1.5,0.5c-0.4,0.4 -0.5,0.9 -0.5,1.6l0,5.9l-3.3,0l0,-10.7l3.3,0l0,1.5c0.3,-0.5 0.8,-0.8 1.3,-1.1c0.5,-0.3 1.2,-0.4 1.9,-0.4c1.1,-0.1 2.1,0.3 2.9,1.1z" class="st0"/>
    <path fill="#000616" d="m183.1694,19.3c0.4,-0.8 0.9,-1.5 1.7,-1.9c0.7,-0.4 1.5,-0.7 2.4,-0.7c0.7,0 1.3,0.1 1.9,0.4c0.5,0.3 1.1,0.7 1.3,1.2l0,-5l3.3,0l0,14.2l-3.3,0l0,-1.5c-0.3,0.5 -0.8,0.9 -1.3,1.2c-0.5,0.3 -1.2,0.4 -2,0.4c-0.9,0 -1.7,-0.3 -2.4,-0.7s-1.3,-1.1 -1.7,-2c-0.4,-0.8 -0.7,-1.9 -0.7,-2.9c0.2,-1 0.4,-1.9 0.8,-2.7zm6.7,0.9c-0.4,-0.5 -1.1,-0.7 -1.6,-0.7c-0.7,0 -1.2,0.3 -1.6,0.7c-0.4,0.5 -0.7,1.1 -0.7,1.9s0.3,1.5 0.7,2s1.1,0.7 1.6,0.7c0.7,0 1.2,-0.3 1.6,-0.7c0.4,-0.5 0.7,-1.1 0.7,-2c0,-0.8 -0.1,-1.3 -0.7,-1.9z" class="st0"/>
   </g>
  </g>
 </g>
</svg>