<svg width="27.7" height="28" xmlns="http://www.w3.org/2000/svg" xml:space="preserve" version="1.1">

 <g>
  <title>Layer 1</title>
  <g id="svg_1">
   <g id="svg_2">
    <path id="svg_3" fill="#B6BCC8" d="m59.2,4.9c-0.9,0 -1.6,0.7 -1.6,1.6c0,0.9 0.7,1.6 1.6,1.6c0.9,0 1.6,-0.7 1.6,-1.6c0.1,-0.8 -0.7,-1.6 -1.6,-1.6z" class="st0"/>
    <path id="svg_4" fill="#B6BCC8" d="m52,7c-3.8,0 -6.8,3.1 -6.8,6.8c0,3.8 3.1,6.8 6.8,6.8c3.8,0 6.8,-3.1 6.8,-6.8c0,-3.7 -3,-6.8 -6.8,-6.8zm0,11.2c-2.4,0 -4.4,-2 -4.4,-4.4s2,-4.4 4.4,-4.4c2.4,0 4.4,2 4.4,4.4s-2,4.4 -4.4,4.4z" class="st0"/>
    <path id="svg_5" fill="#B6BCC8" d="m57.4,27.7l-11,0c-4.6,0 -8.3,-3.7 -8.3,-8.3l0,-11.1c0,-4.6 3.7,-8.3 8.3,-8.3l11.1,0c4.6,0 8.3,3.7 8.3,8.3l0,11.1c-0.1,4.5 -3.8,8.3 -8.4,8.3zm-11,-25.1c-3.1,0 -5.7,2.6 -5.7,5.7l0,11.1c0,3.1 2.6,5.7 5.7,5.7l11.1,0c3.1,0 5.7,-2.6 5.7,-5.7l0,-11.1c0,-3.1 -2.6,-5.7 -5.7,-5.7l-11.1,0z" class="st0"/>
   </g>
  </g>
  <g id="svg_6">
   <path id="svg_7" fill="#B6BCC8" d="m20.3,18.6l0.6,-3.8l-3.7,0l0,-2.5c0,-1 0.5,-2.1 2.1,-2.1l1.7,0l0,-3.2c0,0 -1.5,-0.3 -3,-0.3c-3,0 -5,1.8 -5,5.1l0,2.9l-3.2,0l0,3.8l3.3,0l0,9.2l4.1,0l0,-9.2l3.1,0l0,0.1z" class="st0"/>
   <path id="svg_8" fill="#B6BCC8" d="m19.4,27.8l-11.1,0c-4.6,0 -8.3,-3.7 -8.3,-8.3l0,-11c0,-4.6 3.7,-8.3 8.3,-8.3l11.1,0c4.6,0 8.3,3.7 8.3,8.3l0,11.1c0,4.5 -3.8,8.2 -8.3,8.2zm-11.1,-25c-3.1,0 -5.7,2.6 -5.7,5.7l0,11.1c0,3.1 2.6,5.7 5.7,5.7l11.1,0c3.1,0 5.7,-2.6 5.7,-5.7l0,-11.1c0,-3.1 -2.6,-5.7 -5.7,-5.7l-11.1,0z" class="st0"/>
  </g>
  <g id="svg_9">
   <path id="svg_10" fill="#B6BCC8" d="m74.8,28.9l2,-7.5c-1.1,-2.1 -1.7,-4.3 -1.7,-6.7c0,-7.6 6.1,-13.8 13.7,-13.8c7.5,0 13.7,6.2 13.7,13.8c0,7.6 -6.1,13.8 -13.7,13.8c-2.3,0 -4.5,-0.6 -6.5,-1.7l-7.5,2.1zm7.8,-4.8l0.5,0.3c1.7,1 3.7,1.6 5.7,1.6c6.1,0 11.1,-5 11.1,-11.2c0,-6.2 -5,-11.2 -11.1,-11.2c-6.1,0 -11.1,5 -11.1,11.2c0,2 0.6,4.1 1.6,5.8l0.3,0.5l-1.1,4.2l4.1,-1.2z" class="st0"/>
   <path id="svg_11" fill="#B6BCC8" clip-rule="evenodd" fill-rule="evenodd" d="m93.8,16.7c-0.6,-0.3 -1.3,-0.7 -2,-0.4c-0.5,0.2 -0.8,1 -1.2,1.4c-0.2,0.2 -0.4,0.2 -0.6,0.1c-1.9,-0.8 -3.4,-2.1 -4.4,-3.8c-0.2,-0.3 -0.1,-0.5 0.1,-0.7c0.3,-0.4 0.7,-0.8 0.8,-1.3c0.1,-0.5 -0.2,-1.1 -0.4,-1.6c-0.3,-0.6 -0.6,-1.4 -1.1,-1.7c-0.5,-0.3 -1.2,-0.1 -1.7,0.3c-0.8,0.7 -1.2,1.7 -1.2,2.8c0,0.3 0,0.6 0.1,0.9c0.2,0.7 0.5,1.3 0.8,1.9c0.3,0.5 0.6,0.9 0.9,1.3c1,1.4 2.3,2.6 3.8,3.5c0.7,0.5 1.5,0.9 2.3,1.1c0.9,0.3 1.7,0.6 2.7,0.4c1,-0.2 2.1,-0.9 2.5,-1.9c0.1,-0.3 0.2,-0.6 0.1,-1c-0.1,-0.6 -1,-1 -1.5,-1.3z" class="st1"/>
  </g>
 </g>
</svg>